<?xml version="1.0" encoding="UTF-8"?>
<svg width="4016px" height="512px" viewBox="0 0 4016 512" version="1.1" xmlns="http://www.w3.org/2000/svg" xmlns:xlink="http://www.w3.org/1999/xlink">
    <title>编组</title>
    <g id="logo" stroke="none" stroke-width="1" fill="none" fill-rule="evenodd">
        <g id="编组">
            <path d="M256,0 C345.608401,0 390.412601,0 424.63848,17.4389561 C454.744415,32.7786961 479.221304,57.2555852 494.561044,87.36152 C512,121.587399 512,166.391599 512,256 C512,345.608401 512,390.412601 494.561044,424.63848 C479.221304,454.744415 454.744415,479.221304 424.63848,494.561044 C390.412601,512 345.608401,512 256,512 C166.391599,512 121.587399,512 87.36152,494.561044 C57.2555852,479.221304 32.7786961,454.744415 17.4389561,424.63848 C0,390.412601 0,345.608401 0,256 C0,166.391599 0,121.587399 17.4389561,87.36152 C32.7786961,57.2555852 57.2555852,32.7786961 87.36152,17.4389561 C121.587399,0 166.391599,0 256,0 Z" id="矩形" fill="#FD4041"></path>
            <path d="M422.118784,107.177799 C425.188498,109.784276 426.482108,114.263117 429.069329,123.220799 L448.626145,190.931976 C451.505148,200.899891 452.94465,205.883848 451.319843,210.085489 C449.904556,213.745327 446.952764,216.600255 443.246538,217.893869 C438.991641,219.37899 434.05507,217.777345 424.181928,214.574056 L412.77904,210.873822 C405.623618,230.918332 399.777958,256.032375 395.415902,286.119726 C391.984955,309.784742 381.246801,330.91939 364.792078,346.307699 C347.818261,362.181462 325.758862,371 302.068532,371 C279.86578,371 259.204927,362.822445 243.671159,348.316619 C227.161858,362.431602 205.872037,371 183.044815,371 C158.761525,371 136.322643,361.218061 120.418615,344.073573 C104.530777,326.946539 96.4585399,303.867598 98.2441067,279.678544 L104.823967,190.541245 C106.032009,174.175917 120.29746,161.887078 136.686745,163.093354 C153.076029,164.29963 165.382858,178.544229 164.174816,194.909556 L157.594955,284.046856 C157.022057,291.807897 159.423418,298.673511 164.078134,303.691279 C168.71666,308.691594 175.331239,311.575133 183.044815,311.575133 C200.310819,311.575133 215.989647,296.99399 217.267823,279.678544 L220.941579,229.910219 C222.101299,214.199505 235.294728,202.245682 250.848536,202.381749 C251.496611,202.387418 252.148785,202.414077 252.804356,202.462328 C269.19364,203.668604 281.500469,217.913203 280.292427,234.27853 L276.618672,284.046856 C276.045774,291.807897 278.447135,298.673511 283.101851,303.691279 C287.740377,308.691594 294.354956,311.575133 302.068532,311.575133 C310.553154,311.575133 318.096556,308.559558 324.111205,302.934713 C330.527132,296.934595 334.988865,288.15309 336.518026,277.605674 C341.279661,244.762223 347.778151,216.423341 356.164198,192.505611 L347.55662,189.713746 C337.683586,186.510124 332.747015,184.908479 330.178941,181.209682 C327.942021,177.987845 327.234513,173.945676 328.243869,170.154136 C329.402651,165.801296 333.501017,162.614071 341.69775,156.23962 L397.37744,112.938533 C404.743447,107.210123 408.42645,104.345917 412.444193,104.038928 C415.957693,103.770468 419.434331,104.898445 422.118784,107.177799 Z" id="形状结合" fill="#FFFFFF"></path>
            <path d="M612,122.517346 C612,111.348981 614.89982,102.808404 620.699459,96.8956154 C626.499099,90.9828263 635.087682,88.0264317 646.46521,88.0264317 L722.048158,88.0264317 C733.2082,88.0264317 741.742412,90.9284141 747.650794,96.7323789 C753.559177,102.536344 756.513368,111.131333 756.513368,122.517346 L756.513368,389.482654 C756.513368,400.651019 753.613549,409.191596 747.813909,415.104385 C742.01427,421.017174 733.425686,423.973568 722.048158,423.973568 L646.46521,423.973568 C635.305169,423.973568 626.770957,421.071586 620.862574,415.267621 C614.954191,409.463656 612,400.868667 612,389.482654 L612,122.517346 Z M709.843329,137.189427 L658.67004,137.189427 L658.67004,374.810573 L709.843329,374.810573 L709.843329,137.189427 Z M714.065125,231.418502 C726.807274,231.418502 733.178349,237.794328 733.178349,250.54598 L733.178349,261.45402 C733.178349,274.205672 726.807274,280.581498 714.065125,280.581498 L654.448243,280.581498 C641.706094,280.581498 635.33502,274.205672 635.33502,261.45402 L635.33502,250.54598 C635.33502,237.794328 641.706094,231.418502 654.448243,231.418502 L714.065125,231.418502 Z M964.935778,392.017621 C977.460441,392.017621 983.722772,398.284623 983.722772,410.818626 L983.722772,421.560229 C983.722772,434.094232 977.460441,440.361233 964.935778,440.361233 L790.038269,440.361233 C777.513607,440.361233 771.251276,434.094232 771.251276,421.560229 L771.251276,410.818626 C771.251276,398.284623 777.513607,392.017621 790.038269,392.017621 L964.935778,392.017621 Z M882.815443,109.330396 C895.775078,109.330396 902.254896,115.815047 902.254896,128.784347 L902.254896,396.735476 C902.254896,409.704777 895.775078,416.189427 882.815443,416.189427 L871.749219,416.189427 C858.789583,416.189427 852.309766,409.704777 852.309766,396.735476 L852.309766,128.784347 C852.309766,115.815047 858.789583,109.330396 871.749219,109.330396 L882.815443,109.330396 Z M953.472961,229.779736 C965.997624,229.779736 972.259955,236.046737 972.259955,248.580741 L972.259955,259.322343 C972.259955,271.856346 965.997624,278.123348 953.472961,278.123348 L801.910472,278.123348 C789.38581,278.123348 783.123479,271.856346 783.123479,259.322343 L783.123479,248.580741 C783.123479,236.046737 789.38581,229.779736 801.910472,229.779736 L953.472961,229.779736 Z M958.794983,85.1585903 C971.319646,85.1585903 977.581977,91.425592 977.581977,103.959595 L977.581977,114.701198 C977.581977,127.235201 971.319646,133.502203 958.794983,133.502203 L797.407223,133.502203 C784.882561,133.502203 778.620229,127.235201 778.620229,114.701198 L778.620229,103.959595 C778.620229,91.425592 784.882561,85.1585903 797.407223,85.1585903 L958.794983,85.1585903 Z M1218.32245,70 C1231.49957,70 1238.08813,76.5934747 1238.08813,89.780424 L1238.08813,107.576404 C1238.08813,120.763354 1231.49957,127.356828 1218.32245,127.356828 L1207.08991,127.356828 C1193.91279,127.356828 1187.32423,120.763354 1187.32423,107.576404 L1187.32423,89.780424 C1187.32423,76.5934747 1193.91279,70 1207.08991,70 L1218.32245,70 Z M1356.08095,103.185022 C1367.67596,103.185022 1376.42766,106.141417 1382.33604,112.054206 C1388.24442,117.966995 1391.19862,126.72522 1391.19862,138.328882 L1391.19862,162.308645 C1391.19862,175.060297 1384.82754,181.436123 1372.08539,181.436123 L1361.18548,181.436123 C1348.44333,181.436123 1342.07226,175.060297 1342.07226,162.308645 L1342.07226,151.528634 L1083.34011,151.528634 L1083.34011,162.308645 C1083.34011,175.060297 1076.96903,181.436123 1064.22688,181.436123 L1053.32697,181.436123 C1040.58482,181.436123 1034.21375,175.060297 1034.21375,162.308645 L1034.21375,138.328882 C1034.21375,126.72522 1037.16794,117.966995 1043.07632,112.054206 C1048.98471,106.141417 1057.73641,103.185022 1069.33142,103.185022 L1356.08095,103.185022 Z M1354.72485,192.907489 C1367.03203,192.907489 1373.18562,199.065666 1373.18562,211.382021 L1373.18562,221.957186 C1373.18562,234.273541 1367.03203,240.431718 1354.72485,240.431718 L1070.68751,240.431718 C1058.38034,240.431718 1052.22675,234.273541 1052.22675,221.957186 L1052.22675,211.382021 C1052.22675,199.065666 1058.38034,192.907489 1070.68751,192.907489 L1354.72485,192.907489 Z M1345.71835,288.365639 C1358.02553,288.365639 1364.17912,294.523816 1364.17912,306.840171 L1364.17912,317.415336 C1364.17912,329.731691 1358.02553,335.889868 1345.71835,335.889868 L1079.69401,335.889868 C1067.38684,335.889868 1061.23325,329.731691 1061.23325,317.415336 L1061.23325,306.840171 C1061.23325,294.523816 1067.38684,288.365639 1079.69401,288.365639 L1345.71835,288.365639 Z M1218.23929,216.669604 C1231.19893,216.669604 1237.67875,223.154254 1237.67875,236.123555 L1237.67875,398.374243 C1237.67875,411.343544 1231.19893,417.828194 1218.23929,417.828194 L1207.17307,417.828194 C1194.21344,417.828194 1187.73362,411.343544 1187.73362,398.374243 L1187.73362,236.123555 C1187.73362,223.154254 1194.21344,216.669604 1207.17307,216.669604 L1218.23929,216.669604 Z M1384.28382,393.656388 C1396.80849,393.656388 1403.07082,399.923389 1403.07082,412.457393 L1403.07082,423.198995 C1403.07082,435.732998 1396.80849,442 1384.28382,442 L1041.12854,442 C1028.60388,442 1022.34155,435.732998 1022.34155,423.198995 L1022.34155,412.457393 C1022.34155,399.923389 1028.60388,393.656388 1041.12854,393.656388 L1384.28382,393.656388 Z M1304.37034,342.42573 C1315.74786,336.70285 1324.21491,339.453331 1329.77148,350.677175 L1337.17881,365.349257 C1342.89743,376.73527 1340.14899,385.208632 1328.93352,390.769342 L1319.185,395.72405 C1307.80748,401.44693 1299.34043,398.696448 1293.78386,387.472605 L1286.37653,372.800523 C1280.65791,361.41451 1283.40635,352.941148 1294.62183,347.380438 L1304.37034,342.42573 Z M1767.29807,411.122605 C1770.1211,419.109784 1769.60874,426.186145 1765.76098,432.351687 C1761.91323,438.517229 1755.72216,441.6 1747.18777,441.6 L1732.20865,441.6 C1723.67929,441.6 1716.88042,439.091495 1711.81203,434.074485 C1706.74364,429.057476 1702.54175,421.662078 1699.20636,411.888293 L1603.02502,148.05614 L1630.02963,148.05614 L1533.84829,411.888293 C1530.25672,421.662078 1525.99078,429.057476 1521.05048,434.074485 C1516.11019,439.091495 1509.37536,441.6 1500.846,441.6 L1485.86687,441.6 C1477.33249,441.6 1471.14142,438.517229 1467.29367,432.351687 C1463.44591,426.186145 1462.93355,419.109784 1465.75657,411.122605 L1576.52523,108.030162 C1582.16626,93.0767206 1593.2926,85.6 1609.90426,85.6 L1623.15039,85.6 C1639.76204,85.6 1650.88839,93.0767206 1656.52942,108.030162 L1767.29807,411.122605 Z M1696.0945,287.861808 L1696.0945,350.317949 L1536.96015,350.317949 L1536.96015,287.861808 L1696.0945,287.861808 Z M1860,416.099578 C1860,424.341987 1857.80236,430.65266 1853.40708,435.031596 C1849.01179,439.410532 1842.68008,441.6 1834.41192,441.6 L1820.97743,441.6 C1812.70425,441.6 1806.37002,439.410532 1801.97474,435.031596 C1797.57945,430.65266 1795.38181,424.341987 1795.38181,416.099578 L1795.38181,111.092915 C1795.38181,102.855511 1797.57945,96.5473403 1801.97474,92.1684042 C1806.37002,87.7894681 1812.70425,85.6 1820.97743,85.6 L1834.41192,85.6 C1842.68008,85.6 1849.01179,87.7894681 1853.40708,92.1684042 C1857.80236,96.5473403 1860,102.855511 1860,111.092915 L1860,416.099578 Z" id="形状结合" fill="#2F3133" fill-rule="nonzero"></path>
            <path d="M1957.10652,246.399188 C1957.10652,238.936687 1959.13176,233.180198 1963.18224,229.129719 C1967.23272,225.07924 1972.98921,223.054 1980.45171,223.054 L1992.66533,223.054 C2000.12783,223.054 2005.88432,225.07924 2009.9348,229.129719 C2013.98528,233.180198 2016.01052,238.936687 2016.01052,246.399188 L2016.01052,258.612812 C2016.01052,266.075313 2013.98528,271.831802 2009.9348,275.882281 C2005.88432,279.93276 2000.12783,281.958 1992.66533,281.958 L1980.45171,281.958 C1972.98921,281.958 1967.23272,279.93276 1963.18224,275.882281 C1959.13176,271.831802 1957.10652,266.075313 1957.10652,258.612812 L1957.10652,246.399188 Z" id="路径" fill="#2F3133" fill-rule="nonzero"></path>
            <path d="M2398.96284,74.998 C2409.60105,74.998 2417.68646,77.7114479 2423.21908,83.1383437 C2428.75169,88.5652396 2431.518,96.7035104 2431.518,107.553156 L2431.518,158.658844 C2431.518,169.297052 2428.80455,177.382464 2423.37766,182.915078 C2417.95076,188.447693 2409.81249,191.214 2398.96284,191.214 L2367.95616,191.214 C2356.20272,191.214 2350.326,185.337281 2350.326,173.583844 L2350.326,163.472156 C2350.326,151.718719 2356.20272,145.842 2367.95616,145.842 L2386.544,145.842 L2386.544,120.37 L2293.81,120.37 L2293.81,419.467 C2293.81,431.009 2288.039,436.78 2276.497,436.78 L2266.46616,436.78 C2254.71272,436.78 2248.836,430.903281 2248.836,419.149844 L2248.836,107.553156 C2248.836,96.9149479 2251.54945,88.8295365 2256.97634,83.2969219 C2262.40324,77.7643073 2270.54151,74.998 2281.39116,74.998 L2398.96284,74.998 Z M2397.15319,208.726 C2410.75981,208.726 2420.85803,212.179479 2427.44783,219.086438 C2434.03763,225.993396 2436.48471,236.250187 2434.78906,249.856813 C2430.0794,289.532438 2418.0627,325.074667 2398.73897,356.4835 C2379.41524,387.892333 2355.43781,413.31251 2326.80669,432.744031 C2317.01423,439.360781 2309.09983,437.428823 2303.0635,426.948156 L2298.0885,417.955844 C2292.52894,407.951948 2294.67233,399.614677 2304.51869,392.944031 C2327.66902,376.970135 2346.49007,357.585255 2360.98183,334.789391 C2375.47359,311.993526 2385.18831,285.229063 2390.126,254.496 L2289.46931,254.496 C2277.50444,254.496 2271.522,248.513562 2271.522,236.548687 L2271.522,226.673313 C2271.522,214.708437 2277.50444,208.726 2289.46931,208.726 L2397.15319,208.726 Z M2323.69731,265.708406 C2329.25688,264.174448 2333.85046,264.373448 2337.47806,266.305406 C2341.10567,268.237365 2343.76522,271.983125 2345.45672,277.542688 C2355.06261,307.326354 2367.07206,331.587771 2381.48505,350.326937 C2395.89804,369.066104 2411.89784,383.69675 2429.48447,394.218875 C2439.33082,401.100958 2441.26278,409.438229 2435.28034,419.230688 L2430.14366,428.061312 C2423.89589,438.119104 2415.98149,439.839625 2406.40047,433.222875 C2382.34634,416.556625 2361.73222,396.597547 2344.55811,373.345641 C2327.38399,350.093734 2313.38248,322.40475 2302.55356,290.278688 C2299.11252,279.213458 2302.95156,272.039094 2314.07069,268.755594 L2323.69731,265.708406 Z M2187.78653,75.396 C2198.63618,75.396 2206.88017,78.1623073 2212.5185,83.6949219 C2218.15683,89.2275365 2220.976,97.5243854 2220.976,108.585469 L2220.976,399.610531 C2220.976,410.460177 2218.20969,418.704167 2212.67708,424.3425 C2207.14446,429.980833 2198.84761,432.8 2187.78653,432.8 L2168.31563,432.8 C2155.92787,432.8 2149.734,426.606125 2149.734,414.218375 L2149.734,403.621625 C2149.734,391.233875 2155.92787,385.04 2168.31563,385.04 L2177.196,385.04 L2177.196,123.156 L2133.814,123.156 L2133.814,254.496 C2133.814,282.467937 2131.91624,310.466823 2128.12073,338.492656 C2124.32522,366.51849 2118.52417,393.829167 2110.71756,420.424687 C2107.43406,431.328229 2100.36749,434.848042 2089.51784,430.984125 L2080.20216,427.451875 C2069.51005,423.534062 2065.7788,416.042542 2069.00841,404.977313 C2076.2802,380.400813 2081.60241,355.638786 2084.97505,330.691234 C2088.34768,305.743682 2090.034,280.345271 2090.034,254.496 L2090.034,108.585469 C2090.034,97.7358229 2092.80031,89.4918333 2098.33292,83.8535 C2103.86554,78.2151667 2112.16239,75.396 2123.22347,75.396 L2187.78653,75.396 Z M2179.70838,276.386 C2192.09613,276.386 2198.29,282.579875 2198.29,294.967625 L2198.29,305.564375 C2198.29,317.952125 2192.09613,324.146 2179.70838,324.146 L2130.90362,324.146 C2118.51588,324.146 2112.322,317.952125 2112.322,305.564375 L2112.322,294.967625 C2112.322,282.579875 2118.51588,276.386 2130.90362,276.386 L2179.70838,276.386 Z M2179.70838,178.08 C2192.09613,178.08 2198.29,184.273875 2198.29,196.661625 L2198.29,207.258375 C2198.29,219.646125 2192.09613,225.84 2179.70838,225.84 L2130.90362,225.84 C2118.51588,225.84 2112.322,219.646125 2112.322,207.258375 L2112.322,196.661625 C2112.322,184.273875 2118.51588,178.08 2130.90362,178.08 L2179.70838,178.08 Z" id="形状" fill="#2F3133" fill-rule="nonzero"></path>
            <path d="M2538.22553,70.62 C2550.40184,70.62 2556.49,76.4967187 2556.49,88.2501562 L2554.26991,89.724 L2756.59072,89.724 C2768.29026,89.724 2777.42146,92.0663958 2783.98431,96.7511875 C2790.54717,101.435979 2793.45858,108.132536 2792.71855,116.840859 C2791.97852,125.549182 2786.84494,135.620448 2777.31781,147.054656 C2750.63938,179.574573 2712.93198,205.876776 2664.19564,225.961266 C2615.4593,246.045755 2558.79508,259.141406 2494.203,265.248219 C2482.39567,266.516844 2475.96341,261.168719 2474.90622,249.203844 L2474.09778,239.092156 C2473.67491,233.109719 2474.74764,228.570031 2477.31598,225.473094 C2479.88433,222.376156 2484.15972,220.510531 2490.14216,219.876219 C2545.39368,214.727094 2592.93602,205.081812 2632.76919,190.940375 C2672.60235,176.798937 2704.62063,158.316812 2728.824,135.494 L2543.03263,135.494 C2532.18298,135.494 2523.88613,132.674833 2518.14208,127.0365 C2512.39803,121.398167 2509.526,113.048458 2509.526,101.987375 L2509.526,86.0238437 C2509.526,75.7546146 2515.61416,70.62 2527.79047,70.62 L2538.22553,70.62 Z M2571.49584,141.121969 C2607.00905,163.157073 2644.68431,180.544698 2684.52163,193.284844 C2724.35894,206.02499 2768.7774,214.888781 2817.777,219.876219 C2829.58433,220.721969 2834.95941,227.127281 2833.90222,239.092156 L2833.09378,249.203844 C2832.03659,261.168719 2825.63128,266.516844 2813.87784,265.248219 C2758.30709,259.83376 2707.97668,249.762495 2662.88659,235.034422 C2617.79651,220.306349 2578.57693,201.738198 2545.22784,179.329969 C2535.17005,172.87076 2533.44953,164.744927 2540.06628,154.952469 L2545.84972,146.283531 C2552.52036,136.437177 2561.06907,134.716656 2571.49584,141.121969 Z M2642.18438,248.128 C2654.78356,248.128 2660.66028,254.321875 2659.81453,266.709625 C2656.79636,309.395125 2642.12322,345.614161 2615.79511,375.366734 C2589.46699,405.119307 2550.52829,425.194469 2498.979,435.592219 C2487.17167,437.71074 2480.31446,432.893281 2478.40738,421.139844 L2476.96463,411.028156 C2475.05754,399.274719 2479.98072,392.33874 2491.73416,390.220219 C2534.46941,381.468365 2564.88842,366.370276 2582.9912,344.925953 C2601.09398,323.48163 2610.78176,297.436469 2612.05453,266.790469 C2612.47741,260.596594 2614.29017,255.937714 2617.49283,252.813828 C2620.69548,249.689943 2625.39375,248.128 2631.58763,248.128 L2642.18438,248.128 Z M2778.58022,281.162 C2801.12941,281.162 2812.404,292.436594 2812.404,314.985781 L2812.404,400.966219 C2812.404,423.515406 2801.12941,434.79 2778.58022,434.79 L2732.44331,434.79 C2720.47844,434.79 2714.496,428.807562 2714.496,416.842687 L2714.496,406.569312 C2714.496,394.604437 2720.47844,388.622 2732.44331,388.622 L2764.644,388.622 L2764.644,327.33 L2511.15531,327.33 C2499.19044,327.33 2493.208,321.347562 2493.208,309.382687 L2493.208,299.109312 C2493.208,287.144437 2499.19044,281.162 2511.15531,281.162 L2778.58022,281.162 Z" id="形状" fill="#2F3133" fill-rule="nonzero"></path>
            <path d="M2973.594,313.163688 C2973.594,302.948354 2976.25355,295.12724 2981.57266,289.700344 C2986.89176,284.273448 2994.76677,281.56 3005.19769,281.56 L3098.80231,281.56 C3109.01765,281.56 3116.83876,284.219552 3122.26566,289.538656 C3127.69255,294.85776 3130.406,302.732771 3130.406,313.163688 L3130.406,379.704313 C3130.406,389.919646 3127.74645,397.74076 3122.42734,403.167656 C3117.10824,408.594552 3109.23323,411.308 3098.80231,411.308 L3005.19769,411.308 C2994.98235,411.308 2987.16124,408.648448 2981.73434,403.329344 C2976.30745,398.01024 2973.594,390.135229 2973.594,379.704313 L2973.594,313.163688 Z M3085.83,324.544 L3018.17,324.544 L3018.17,368.324 L3085.83,368.324 L3085.83,324.544 Z M2995.99394,221.437125 C3005.15208,214.820375 3013.1722,216.012302 3020.05428,225.012906 L3025.83772,233.035094 C3032.66591,242.19324 3031.47398,250.001917 3022.26194,256.461125 C3011.64446,263.9485 3000.67977,271.184016 2989.36786,278.167672 C2978.05595,285.151328 2969.33623,290.108708 2963.20869,293.039813 C2953.41623,298.387938 2945.81899,296.033104 2940.41697,285.975312 L2935.92703,277.144688 C2930.79034,267.352229 2933.2509,259.649271 2943.30869,254.035813 C2953.08456,248.405771 2962.47591,242.815115 2971.48273,237.263844 C2980.48956,231.712573 2988.65996,226.437 2995.99394,221.437125 Z M3189.78884,171.712 C3200.42705,171.712 3208.51246,174.425448 3214.04508,179.852344 C3219.57769,185.27924 3222.344,193.41751 3222.344,204.267156 L3222.344,401.836844 C3222.344,412.475052 3219.63055,420.560464 3214.20366,426.093078 C3208.77676,431.625693 3200.63849,434.392 3189.78884,434.392 L3161.01469,434.392 C3149.89556,434.392 3144.336,428.832437 3144.336,417.713313 L3144.336,408.086688 C3144.336,396.967563 3149.89556,391.408 3161.01469,391.408 L3175.38,391.408 L3175.38,214.696 L2928.62,214.696 L2928.62,418.515531 C2928.62,430.691844 2922.53184,436.78 2910.35553,436.78 L2899.92047,436.78 C2887.74416,436.78 2881.656,430.691844 2881.656,418.515531 L2881.656,204.267156 C2881.656,193.628948 2884.36945,185.543536 2889.79634,180.010922 C2895.22324,174.478307 2903.36151,171.712 2914.21116,171.712 L3189.78884,171.712 Z M2971.803,141.128188 C2983.50254,136.841396 2991.41694,140.469 2995.54619,152.011 L3000.99381,167.533 C3005.2806,179.232542 3001.653,187.146937 2990.111,191.276187 L2980.161,195.131812 C2968.46146,199.418604 2960.54706,195.791 2956.41781,184.249 L2950.97019,168.727 C2946.6834,157.027458 2950.311,149.113062 2961.853,144.983812 L2971.803,141.128188 Z M3108.00606,221.437125 C3118.51575,228.605271 3128.71035,235.243786 3138.58987,241.352672 C3148.4694,247.461557 3155.83654,251.689271 3160.69131,254.035813 C3170.7491,259.649271 3173.20966,267.352229 3168.07297,277.144688 L3163.58303,285.975312 C3158.18101,296.033104 3150.58377,298.387938 3140.79131,293.039813 C3129.90021,286.879104 3119.14281,280.519396 3108.51911,273.960687 C3097.89541,267.401979 3088.9684,261.568792 3081.73806,256.461125 C3072.52602,250.001917 3071.33409,242.19324 3078.16228,233.035094 L3083.94572,225.012906 C3090.8278,216.012302 3098.84792,214.820375 3108.00606,221.437125 Z M3214.42131,91.714 C3225.54044,91.714 3231.1,97.2735625 3231.1,108.392687 L3231.1,118.019312 C3231.1,129.138438 3225.54044,134.698 3214.42131,134.698 L2889.57869,134.698 C2878.45956,134.698 2872.9,129.138438 2872.9,118.019312 L2872.9,108.392687 C2872.9,97.2735625 2878.45956,91.714 2889.57869,91.714 L3214.42131,91.714 Z M3059.363,68.63 C3070.905,68.63 3076.676,74.401 3076.676,85.943 L3076.676,95.893 C3076.676,107.435 3070.905,113.206 3059.363,113.206 L3044.637,113.206 C3033.095,113.206 3027.324,107.435 3027.324,95.893 L3027.324,85.943 C3027.324,74.401 3033.095,68.63 3044.637,68.63 L3059.363,68.63 Z M3142.147,144.983812 C3153.689,149.113062 3157.3166,157.027458 3153.02981,168.727 L3147.58219,184.249 C3143.45294,195.791 3135.53854,199.418604 3123.839,195.131812 L3113.889,191.276187 C3102.347,187.146937 3098.7194,179.232542 3103.00619,167.533 L3108.45381,152.011 C3112.58306,140.469 3120.49746,136.841396 3132.197,141.128188 L3142.147,144.983812 Z" id="形状" fill="#2F3133" fill-rule="nonzero"></path>
            <path d="M3363.236,293.810938 C3363.236,282.538417 3366.10803,274.03013 3371.85208,268.286078 C3377.59613,262.542026 3386.10442,259.67 3397.37694,259.67 L3576.65106,259.67 C3587.92358,259.67 3596.43187,262.542026 3602.17592,268.286078 C3607.91997,274.03013 3610.792,282.538417 3610.792,293.810938 L3610.792,397.863062 C3610.792,409.135583 3607.91997,417.64387 3602.17592,423.387922 C3596.43187,429.131974 3587.92358,432.004 3576.65106,432.004 L3397.37694,432.004 C3386.10442,432.004 3377.59613,429.131974 3371.85208,423.387922 C3366.10803,417.64387 3363.236,409.135583 3363.236,397.863062 L3363.236,293.810938 Z M3563.032,306.634 L3410.996,306.634 L3410.996,385.04 L3563.032,385.04 L3563.032,306.634 Z M3433.682,84.152 C3489.68806,84.152 3541.94629,81.4426979 3590.45669,76.0240938 C3602.6869,74.3325938 3609.64982,79.575 3611.34547,91.7513125 L3612.62653,102.024688 C3614.32218,114.201 3609.08184,120.923469 3596.90553,122.192094 C3548.87191,128.141365 3494.46406,131.116 3433.682,131.116 L3339.356,131.116 L3339.356,239.372 C3339.356,270.954958 3336.62182,302.325443 3331.15347,333.483453 C3325.68511,364.641464 3317.03069,393.833312 3305.19019,421.059 C3300.21104,432.601 3291.97742,435.592219 3280.48931,430.032656 L3270.86269,425.219344 C3259.955,419.817323 3257.0695,411.266542 3262.20619,399.567 C3281.7994,353.656042 3291.596,300.257708 3291.596,239.372 L3291.596,118.292938 C3291.596,107.020417 3294.46803,98.5121302 3300.21208,92.7680781 C3305.95613,87.024026 3314.46442,84.152 3325.73694,84.152 L3433.682,84.152 Z M3610.43753,172.11 C3622.61384,172.11 3628.702,178.198156 3628.702,190.374469 L3628.702,200.809531 C3628.702,212.985844 3622.61384,219.074 3610.43753,219.074 L3333.74047,219.074 C3321.56416,219.074 3315.476,212.985844 3315.476,200.809531 L3315.476,190.374469 C3315.476,178.198156 3321.56416,172.11 3333.74047,172.11 L3610.43753,172.11 Z" id="形状" fill="#2F3133" fill-rule="nonzero"></path>
            <path d="M3693.974,295.247469 C3693.974,272.059823 3705.56782,260.466 3728.75547,260.466 L3967.24453,260.466 C3990.43218,260.466 4002.026,272.059823 4002.026,295.247469 L4002.026,394.436531 C4002.026,417.624177 3990.43218,429.218 3967.24453,429.218 L3728.75547,429.218 C3705.56782,429.218 3693.974,417.624177 3693.974,394.436531 L3693.974,295.247469 Z M3952.674,382.254 L3952.674,307.43 L3743.326,307.43 L3743.326,382.254 L3952.674,382.254 Z M3781.48425,73.530375 C3790.06198,63.8954583 3799.24707,63.2341979 3809.03953,71.5465938 L3817.70847,78.4494062 C3827.55482,86.8156979 3828.21608,95.8950729 3819.69225,105.687531 L3762.43,170.916 L3964.614,170.916 L3964.614,144.59825 C3964.614,131.36475 3971.23075,124.748 3984.46425,124.748 L3995.70775,124.748 C4008.94125,124.748 4015.558,131.36475 4015.558,144.59825 L4015.558,183.421906 C4015.558,195.332885 4012.5274,204.318979 4006.46619,210.380187 C4000.40498,216.441396 3991.41889,219.472 3979.50791,219.472 L3718.00947,219.472 C3705.67561,219.472 3696.38584,217.393901 3690.14014,213.237703 C3683.89444,209.081505 3681.24836,203.284594 3682.20191,195.846969 C3683.15545,188.409344 3687.86511,179.926969 3696.33091,170.399844 L3781.48425,73.530375 Z" id="形状" fill="#2F3133" fill-rule="nonzero"></path>
        </g>
    </g>
</svg>